<svg xmlns="http://www.w3.org/2000/svg" width="35" height="34" viewBox="0 0 35 34" fill="none">
<path d="M17.5233 33.4463C26.6064 33.4463 33.9697 26.0831 33.9697 17C33.9697 7.91695 26.6064 0.553684 17.5233 0.553684C8.44029 0.553684 1.07703 7.91695 1.07703 17C1.07703 26.0831 8.44029 33.4463 17.5233 33.4463Z" fill="#F6F7FB"/>
<path d="M27.7549 13.7033H23.2454C19.3802 13.7033 16.197 16.8865 16.197 20.7517C16.197 24.617 19.3802 27.8001 23.2454 27.8001H26.3528L30.597 30.8696C30.8244 31.0212 31.1655 30.8696 31.1655 30.5665V26.8907C33.3255 25.678 34.8033 23.3665 34.8033 20.7517C34.8033 16.8865 31.6202 13.7033 27.7549 13.7033Z" fill="#16C2F8"/>
<path d="M28.2855 7.75371C28.096 7.48844 27.7928 7.37476 27.4518 7.37476C27.1107 7.37476 26.7697 7.56423 26.5423 7.86739C26.5044 7.90528 26.5423 7.94318 26.5802 7.98107L26.9213 8.20844C26.9591 8.24634 26.997 8.20844 26.997 8.17055C27.1107 8.01897 27.2623 7.90528 27.4139 7.90528C27.6034 7.90528 27.717 7.94318 27.7928 8.05686C27.8686 8.17055 27.9065 8.28423 27.8686 8.39792C27.8307 8.5495 27.7549 8.58739 27.6034 8.70107C27.4139 8.81476 27.2244 8.96634 27.1107 9.30739C27.0728 9.45897 27.0349 9.68634 27.0349 9.83792C27.0349 9.87581 27.0728 9.91371 27.1107 9.91371H27.5276C27.5655 9.91371 27.6034 9.87581 27.6034 9.83792C27.6034 9.72423 27.6034 9.57265 27.6413 9.45897C27.6791 9.34529 27.7549 9.2695 27.9065 9.15581C28.096 9.04213 28.3234 8.89055 28.3991 8.5495C28.5128 8.28423 28.437 7.98107 28.2855 7.75371Z" fill="#16C2F8"/>
<path d="M27.376 10.8989C27.5853 10.8989 27.755 10.7293 27.755 10.52C27.755 10.3107 27.5853 10.141 27.376 10.141C27.1667 10.141 26.9971 10.3107 26.9971 10.52C26.9971 10.7293 27.1667 10.8989 27.376 10.8989Z" fill="#16C2F8"/>
<path d="M0.243408 27.0421L1.49394 23.2905C1.49394 23.2526 1.56972 23.2147 1.60762 23.2147H2.70657C2.74446 23.2147 2.78236 23.2526 2.82025 23.2905L4.07078 27.0421C4.10867 27.1178 4.03288 27.1936 3.95709 27.1936H3.1992C3.1613 27.1936 3.12341 27.1557 3.08552 27.1178L2.85815 26.3978C2.85815 26.36 2.82025 26.36 2.82025 26.36H1.53183C1.49394 26.36 1.49394 26.36 1.49394 26.3978L1.26657 27.1178C1.26657 27.1557 1.19078 27.1936 1.15288 27.1936H0.357092C0.281303 27.1936 0.243408 27.1178 0.243408 27.0421ZM2.59288 25.64C2.63078 25.64 2.63078 25.6021 2.63078 25.6021L2.21394 24.2378H2.17604L1.7213 25.5642C1.7213 25.6021 1.7213 25.6021 1.7592 25.6021H2.59288V25.64Z" fill="#FFA52F"/>
<path d="M24.9886 21.6232C25.5119 21.6232 25.936 21.199 25.936 20.6758C25.936 20.1526 25.5119 19.7284 24.9886 19.7284C24.4654 19.7284 24.0413 20.1526 24.0413 20.6758C24.0413 21.199 24.4654 21.6232 24.9886 21.6232Z" fill="white"/>
<path d="M29.1191 21.6232C29.6423 21.6232 30.0665 21.199 30.0665 20.6758C30.0665 20.1526 29.6423 19.7284 29.1191 19.7284C28.5959 19.7284 28.1718 20.1526 28.1718 20.6758C28.1718 21.199 28.5959 21.6232 29.1191 21.6232Z" fill="white"/>
<path d="M10.0202 4.72215H16.0834C21.2749 4.72215 25.5191 8.96636 25.5191 14.1579C25.5191 19.3495 21.2749 23.5937 16.0834 23.5937H11.9149L6.23073 27.7242C5.92758 27.9516 5.47284 27.7242 5.47284 27.3453V22.419C2.59284 20.7895 0.622314 17.6821 0.622314 14.1579C0.622314 8.96636 4.82863 4.72215 10.0202 4.72215Z" fill="#FFBF74"/>
<path d="M13.2528 14.9331C13.6923 14.9331 14.0486 14.5768 14.0486 14.1373C14.0486 13.6978 13.6923 13.3415 13.2528 13.3415C12.8133 13.3415 12.457 13.6978 12.457 14.1373C12.457 14.5768 12.8133 14.9331 13.2528 14.9331Z" fill="#FB5E00"/>
<path d="M17.1307 14.9331C17.5702 14.9331 17.9265 14.5768 17.9265 14.1373C17.9265 13.6978 17.5702 13.3415 17.1307 13.3415C16.6912 13.3415 16.335 13.6978 16.335 14.1373C16.335 14.5768 16.6912 14.9331 17.1307 14.9331Z" fill="#FB5E00"/>
<path d="M9.01076 14.9331C9.45026 14.9331 9.80655 14.5768 9.80655 14.1373C9.80655 13.6978 9.45026 13.3415 9.01076 13.3415C8.57125 13.3415 8.21497 13.6978 8.21497 14.1373C8.21497 14.5768 8.57125 14.9331 9.01076 14.9331Z" fill="#FB5E00"/>
</svg>