<svg width="14" height="14" viewBox="0 0 14 14" fill="none" xmlns="http://www.w3.org/2000/svg">
<path d="M6.11052 1.42715C6.48249 0.703113 7.51751 0.703114 7.88948 1.42715L9.17665 3.9326C9.32185 4.21523 9.59273 4.41203 9.90639 4.46279L12.687 4.91273C13.4905 5.04276 13.8104 6.02712 13.2367 6.60463L11.2516 8.60303C11.0277 8.82846 10.9242 9.14689 10.9729 9.46089L11.4042 12.2444C11.5289 13.0488 10.6915 13.6572 9.96501 13.2901L7.451 12.0197C7.16741 11.8764 6.83259 11.8764 6.549 12.0197L4.03499 13.2901C3.30847 13.6572 2.47113 13.0488 2.59578 12.2444L3.02709 9.46089C3.07575 9.14689 2.97228 8.82846 2.74836 8.60303L0.763295 6.60463C0.18964 6.02712 0.509478 5.04276 1.31303 4.91273L4.09361 4.46279C4.40727 4.41203 4.67815 4.21523 4.82335 3.9326L6.11052 1.42715Z" fill="#FF9100"/>
</svg>
