<svg width="30" height="24" viewBox="0 0 30 24" fill="none" xmlns="http://www.w3.org/2000/svg">
<g clip-path="url(#clip0_142_1393)">
<path d="M23.9997 16.2804C23.9983 16.4779 23.9189 16.6668 23.7787 16.8059C23.6385 16.9449 23.449 17.0229 23.2515 17.0228H7.41426C7.21628 17.0237 7.02603 16.9461 6.88523 16.8069C6.74443 16.6677 6.66458 16.4784 6.66321 16.2804V0.742959C6.66534 0.545174 6.74541 0.356214 6.88602 0.21711C7.02664 0.0780055 7.21646 -1.12354e-05 7.41426 2.34743e-07H23.2515C23.4491 -0.000156224 23.6387 0.0779043 23.7789 0.217121C23.9191 0.356338 23.9985 0.54539 23.9997 0.742959V16.2804Z" fill="#0C9D58" style="fill:#0C9D58;fill:color(display-p3 0.0471 0.6157 0.3451);fill-opacity:1;"/>
<path opacity="0.2" d="M23.9997 3.99432L18.0641 3.22998L23.9997 4.82278V3.99432Z" fill="#004D40" style="fill:#004D40;fill:color(display-p3 0.0000 0.3020 0.2510);fill-opacity:1;"/>
<path opacity="0.2" d="M15.6192 0.808928L6.63086 4.82356L16.5678 1.20756V1.19774C16.3945 0.823371 15.9675 0.648897 15.622 0.810083L15.6192 0.808928Z" fill="#004D40" style="fill:#004D40;fill:color(display-p3 0.0000 0.3020 0.2510);fill-opacity:1;"/>
<path opacity="0.2" d="M23.2515 2.34743e-07H7.41426C7.21646 -1.12354e-05 7.02664 0.0780055 6.88602 0.21711C6.74541 0.356214 6.66534 0.545174 6.66321 0.742959V0.909345C6.66534 0.71156 6.74541 0.522599 6.88602 0.383495C7.02664 0.244391 7.21646 0.166375 7.41426 0.166386H23.2515C23.4491 0.16623 23.6387 0.24429 23.7789 0.383507C23.9191 0.522724 23.9985 0.711776 23.9997 0.909345V0.742959C23.9985 0.54539 23.9191 0.356338 23.7789 0.217121C23.6387 0.0779043 23.4491 -0.000156224 23.2515 2.34743e-07Z" fill="white" style="fill:white;fill-opacity:1;"/>
<path d="M10.5097 15.8026C10.4023 16.2018 10.616 16.6114 10.984 16.7073L25.6526 20.6521C26.0206 20.7508 26.4094 20.5047 26.5163 20.1061L29.9717 7.21005C30.0786 6.81084 29.8648 6.40123 29.4968 6.30532L14.8283 2.36001C14.4602 2.2618 14.0714 2.50734 13.9651 2.90655L10.5097 15.8026Z" fill="#EA4335" style="fill:#EA4335;fill:color(display-p3 0.9176 0.2627 0.2078);fill-opacity:1;"/>
<path opacity="0.2" d="M26.6665 11.8127L27.4378 16.4999L26.6665 19.3804V11.8127Z" fill="#3E2723" style="fill:#3E2723;fill:color(display-p3 0.2431 0.1529 0.1373);fill-opacity:1;"/>
<path opacity="0.2" d="M18.1334 3.42139L18.825 3.60742L19.2536 6.5001L18.1334 3.42139Z" fill="#3E2723" style="fill:#3E2723;fill:color(display-p3 0.2431 0.1529 0.1373);fill-opacity:1;"/>
<path opacity="0.2" d="M29.4951 6.30532L14.8289 2.36001C14.4608 2.2618 14.072 2.50734 13.9657 2.90655L10.5098 15.8026C10.504 15.8246 10.5028 15.8459 10.4988 15.8679L13.9282 3.06889C14.0356 2.67025 14.4239 2.42414 14.7919 2.52293L29.4604 6.47055C29.807 6.56357 30.0145 6.93274 29.9463 7.31057L29.9723 7.21293C30.0792 6.81372 29.8654 6.40411 29.4974 6.30821L29.4951 6.30532Z" fill="white" style="fill:white;fill-opacity:1;"/>
<path d="M22.062 14.212C22.203 14.6003 22.0256 15.0243 21.668 15.1549L6.1895 20.7906C5.8313 20.9206 5.42285 20.7098 5.28188 20.3215L0.71494 7.77557C0.573975 7.38734 0.751337 6.96328 1.10895 6.8333L16.588 1.19929C16.9462 1.0693 17.3541 1.28017 17.4956 1.6684L22.062 14.212Z" fill="#FFC107" style="fill:#FFC107;fill:color(display-p3 1.0000 0.7569 0.0275);fill-opacity:1;"/>
<path opacity="0.2" d="M0.773813 7.93391C0.632847 7.54567 0.81021 7.12162 1.16782 6.99105L16.6463 1.35705C17.0005 1.22821 17.4032 1.43388 17.5487 1.81403L17.4956 1.66786C17.354 1.27963 16.9456 1.06876 16.588 1.19933L1.1089 6.83333C0.750704 6.96332 0.573341 7.38738 0.714884 7.77561L5.28183 20.3216C5.28352 20.3257 5.28545 20.3298 5.28761 20.3337L0.773813 7.93391Z" fill="white" style="fill:white;fill-opacity:1;"/>
<path d="M26.6642 23.25C26.6642 23.4492 26.5851 23.6402 26.4443 23.7811C26.3034 23.9219 26.1124 24.0011 25.9132 24.0011H4.74983C4.55064 24.0011 4.3596 23.9219 4.21876 23.7811C4.07791 23.6402 3.99878 23.4492 3.99878 23.25V7.24983C3.99878 7.05064 4.07791 6.8596 4.21876 6.71876C4.3596 6.57791 4.55064 6.49878 4.74983 6.49878H25.9166C26.1158 6.49878 26.3069 6.57791 26.4477 6.71876C26.5886 6.8596 26.6677 7.05064 26.6677 7.24983L26.6642 23.25Z" fill="#4285F4" style="fill:#4285F4;fill:color(display-p3 0.2588 0.5216 0.9569);fill-opacity:1;"/>
<path d="M22.6247 12.8337H16.291V11.167H22.6247C22.7131 11.167 22.7979 11.2021 22.8604 11.2646C22.9229 11.3271 22.958 11.4119 22.958 11.5003V12.4998C22.9581 12.5436 22.9495 12.587 22.9328 12.6276C22.9161 12.6681 22.8915 12.7049 22.8606 12.7359C22.8296 12.7669 22.7928 12.7915 22.7524 12.8083C22.7119 12.8251 22.6685 12.8337 22.6247 12.8337ZM22.6247 19.1668H16.291V17.5001H22.6247C22.7131 17.5001 22.7979 17.5352 22.8604 17.5977C22.9229 17.6602 22.958 17.745 22.958 17.8334V18.834C22.9578 18.9223 22.9227 19.007 22.8602 19.0694C22.7977 19.1318 22.713 19.1668 22.6247 19.1668ZM23.6247 15.9997H16.291V14.3329H23.6247C23.7131 14.3331 23.7978 14.3683 23.8602 14.4307C23.9227 14.4932 23.9579 14.5779 23.9581 14.6663V15.6663C23.9581 15.7548 23.9229 15.8395 23.8604 15.9021C23.7979 15.9646 23.7131 15.9997 23.6247 15.9997Z" fill="white" style="fill:white;fill-opacity:1;"/>
<path opacity="0.2" d="M25.9166 23.8336H4.74983C4.55064 23.8336 4.3596 23.7544 4.21876 23.6136C4.07791 23.4727 3.99878 23.2817 3.99878 23.0825V23.2495C3.99878 23.4487 4.07791 23.6397 4.21876 23.7806C4.3596 23.9214 4.55064 24.0005 4.74983 24.0005H25.9166C26.1158 24.0005 26.3069 23.9214 26.4477 23.7806C26.5886 23.6397 26.6677 23.4487 26.6677 23.2495V23.0825C26.6677 23.2817 26.5886 23.4727 26.4477 23.6136C26.3069 23.7544 26.1158 23.8336 25.9166 23.8336Z" fill="#1A237E" style="fill:#1A237E;fill:color(display-p3 0.1020 0.1373 0.4941);fill-opacity:1;"/>
<path opacity="0.2" d="M4.74983 6.66648H25.9166C26.1158 6.66648 26.3069 6.7456 26.4477 6.88645C26.5886 7.0273 26.6677 7.21833 26.6677 7.41752V7.25056C26.6677 7.05137 26.5886 6.86034 26.4477 6.71949C26.3069 6.57864 26.1158 6.49951 25.9166 6.49951H4.74983C4.55064 6.49951 4.3596 6.57864 4.21876 6.71949C4.07791 6.86034 3.99878 7.05137 3.99878 7.25056V7.41752C3.99878 7.21833 4.07791 7.0273 4.21876 6.88645C4.3596 6.7456 4.55064 6.66648 4.74983 6.66648Z" fill="white" style="fill:white;fill-opacity:1;"/>
<path d="M10.6246 14.501V16.0031H12.7813C12.6034 16.9188 11.7992 17.5826 10.6246 17.5826C9.31551 17.5826 8.25596 16.4751 8.25596 15.166C8.25596 13.8569 9.31783 12.7494 10.6246 12.7494C11.195 12.7401 11.7462 12.9555 12.1591 13.349L13.3007 12.2074C12.5764 11.5279 11.6171 11.1552 10.6241 11.1675C10.0948 11.1612 9.56943 11.2599 9.07856 11.4581C8.58769 11.6563 8.14104 11.9499 7.76448 12.3219C7.38793 12.694 7.08896 13.1371 6.88492 13.6255C6.68087 14.114 6.57581 14.6381 6.57581 15.1674C6.57581 15.6968 6.68087 16.2209 6.88492 16.7093C7.08896 17.1978 7.38793 17.6409 7.76448 18.0129C8.14104 18.385 8.58769 18.6786 9.07856 18.8768C9.56943 19.0749 10.0948 19.1737 10.6241 19.1673C12.935 19.1673 14.4538 17.5433 14.4538 15.2584C14.4529 15.0047 14.4318 14.7514 14.3909 14.501H10.6246Z" fill="white" style="fill:white;fill-opacity:1;"/>
<g opacity="0.2">
<path d="M10.6664 16.0029V16.1693H12.7832C12.799 16.1146 12.8123 16.0592 12.823 16.0029H10.6664Z" fill="#1A237E" style="fill:#1A237E;fill:color(display-p3 0.1020 0.1373 0.4941);fill-opacity:1;"/>
<path d="M10.6663 19.1667C9.61999 19.1666 8.61535 18.7564 7.86795 18.0241C7.12055 17.2919 6.68992 16.2958 6.66846 15.2497C6.66846 15.2774 6.66846 15.3075 6.66846 15.3329C6.66846 16.3938 7.0899 17.4113 7.84009 18.1614C8.59027 18.9116 9.60773 19.3331 10.6686 19.3331C12.9796 19.3331 14.4984 17.7091 14.4984 15.4242C14.4984 15.4057 14.4984 15.3883 14.4984 15.3704C14.4441 17.5958 12.9385 19.1667 10.6663 19.1667ZM12.2008 13.3495C11.7877 12.9562 11.2367 12.7408 10.6663 12.7499C9.35721 12.7499 8.29765 13.8574 8.29765 15.1665C8.29765 15.1948 8.29765 15.2243 8.3017 15.2497C8.34618 13.9787 9.38725 12.9162 10.6704 12.9162C11.2398 12.9084 11.7895 13.1249 12.2008 13.5188L13.4256 12.294C13.3967 12.2675 13.3678 12.2438 13.3354 12.2178L12.2014 13.3524L12.2008 13.3495Z" fill="#1A237E" style="fill:#1A237E;fill:color(display-p3 0.1020 0.1373 0.4941);fill-opacity:1;"/>
</g>
<path opacity="0.2" d="M22.958 12.6667V12.4998C22.958 12.5882 22.9229 12.673 22.8604 12.7355C22.7979 12.798 22.7131 12.8331 22.6247 12.8331H16.291V12.9989H22.6247C22.6684 12.9991 22.7118 12.9906 22.7523 12.9739C22.7927 12.9572 22.8295 12.9327 22.8605 12.9018C22.8915 12.8709 22.916 12.8342 22.9328 12.7937C22.9495 12.7533 22.9581 12.7099 22.958 12.6661V12.6667ZM22.6247 19.1667H16.291V19.3331H22.6247C22.7131 19.3331 22.7979 19.298 22.8604 19.2355C22.9229 19.173 22.958 19.0882 22.958 18.9998V18.834C22.9578 18.9223 22.9227 19.0069 22.8602 19.0693C22.7977 19.1317 22.713 19.1667 22.6247 19.1667ZM23.6247 15.9996H16.291V16.1666H23.6247C23.7131 16.1666 23.7979 16.1315 23.8604 16.069C23.9229 16.0064 23.9581 15.9217 23.9581 15.8332V15.6669C23.9579 15.7552 23.9227 15.8398 23.8602 15.9022C23.7977 15.9646 23.713 15.9996 23.6247 15.9996Z" fill="#1A237E" style="fill:#1A237E;fill:color(display-p3 0.1020 0.1373 0.4941);fill-opacity:1;"/>
<path d="M29.4951 6.30533L23.9997 4.82692V0.742959C23.9985 0.54539 23.9191 0.356338 23.7789 0.217121C23.6388 0.0779043 23.4492 -0.000156224 23.2516 2.34743e-07H7.41431C7.21651 -1.12354e-05 7.02669 0.0780055 6.88607 0.21711C6.74546 0.356214 6.66539 0.545174 6.66326 0.742959V4.81075L1.10609 6.8328C0.747896 6.96278 0.570533 7.38684 0.712077 7.77507L3.99993 16.8003V23.2501C3.99993 23.4493 4.07906 23.6403 4.21991 23.7812C4.36075 23.922 4.55179 24.0012 4.75098 24.0012H25.9166C26.1158 24.0012 26.3069 23.922 26.4477 23.7812C26.5886 23.6403 26.6677 23.4493 26.6677 23.2501V19.5474L29.9723 7.21005C30.0792 6.81084 29.8654 6.40123 29.4974 6.30533H29.4951Z" fill="url(#paint0_radial_142_1393)" style=""/>
</g>
<defs>
<radialGradient id="paint0_radial_142_1393" cx="0" cy="0" r="1" gradientUnits="userSpaceOnUse" gradientTransform="translate(7.27738 1.94406) scale(28.5265)">
<stop stop-color="white" stop-opacity="0.1" style="stop-color:white;stop-opacity:0.1;"/>
<stop offset="1" stop-color="white" stop-opacity="0" style="stop-color:none;stop-opacity:0;"/>
</radialGradient>
<clipPath id="clip0_142_1393">
<rect width="29.3336" height="24" fill="white" style="fill:white;fill-opacity:1;" transform="translate(0.666382)"/>
</clipPath>
</defs>
</svg>
