<svg width="16" height="17" viewBox="0 0 16 17" fill="none" xmlns="http://www.w3.org/2000/svg">
<path d="M15.4288 0.62207H9.14329C8.99175 0.622104 8.84644 0.682336 8.7393 0.78951L0.168113 9.3607C-0.0551729 9.58372 -0.0553738 9.94552 0.167678 10.1688C0.167812 10.1689 0.167979 10.1691 0.168113 10.1692L6.45364 16.4548C6.67679 16.6778 7.03849 16.6778 7.26161 16.4548L15.8328 7.88358C15.9401 7.7763 16.0003 7.63076 16.0002 7.47902V1.19349C16.0002 0.8779 15.7444 0.62207 15.4288 0.62207ZM12.0003 5.76478C11.3692 5.76478 10.8575 5.25312 10.8575 4.62197C10.8575 3.99082 11.3692 3.47916 12.0003 3.47916C12.6315 3.47916 13.1432 3.99082 13.1432 4.62197C13.1432 5.25312 12.6315 5.76478 12.0003 5.76478Z" fill="#74CE63"/>
</svg>
