<svg xmlns="http://www.w3.org/2000/svg" width="24" height="24" viewBox="0 0 24 24" fill="none">
<path d="M21.8448 15.7636L21.3785 15.0901C21.5857 14.9864 21.9484 14.3129 21.5857 14.002C21.3785 13.8465 21.0158 13.9502 20.8603 14.0538L20.1349 11.7222C20.0831 11.4631 19.8241 11.2559 19.565 11.2041C18.8914 11.0486 17.4924 10.7896 15.9899 10.7896C14.4873 10.7896 13.0883 11.0486 12.4147 11.2041C12.1557 11.2559 11.9484 11.4631 11.8448 11.7222L11.1194 14.0538C10.9639 14.002 10.5494 13.8465 10.394 14.002C10.0313 14.3129 10.394 14.9864 10.6013 15.0901L10.1349 15.7636C10.0313 15.8673 9.97949 16.0227 9.97949 16.1782C9.97949 18.4061 10.3422 20.0123 10.4976 20.5823C10.5494 20.7377 10.7049 20.8414 10.8603 20.8414H12.2593C12.4147 20.8414 12.5702 20.7377 12.622 20.5823L12.7774 20.0642C12.8292 19.9087 12.9847 19.8051 13.1401 19.8051H18.8396C18.995 19.8051 19.1505 19.9087 19.2023 20.0642L19.3577 20.5823C19.4095 20.7377 19.565 20.8414 19.7204 20.8414H21.1194C21.2748 20.8414 21.4303 20.7377 21.4821 20.5823C21.6375 19.9605 21.9484 18.4061 22.0002 16.1782C21.9484 16.0227 21.8966 15.8673 21.8448 15.7636ZM12.0002 14.0538L12.6738 12.0331C12.7256 11.9294 12.7774 11.8776 12.881 11.8258C13.2956 11.774 14.4355 11.5149 15.9899 11.5149C17.5443 11.5149 18.6842 11.7222 19.0987 11.8258C19.2023 11.8258 19.2541 11.9294 19.3059 12.0331L19.9795 14.0538C20.0313 14.2611 19.8759 14.4683 19.7204 14.4683H12.3111C12.1038 14.4683 11.9484 14.2611 12.0002 14.0538ZM13.1401 16.7481L12.7774 17.3699C12.7256 17.4735 12.622 17.4735 12.5702 17.4735H11.1194C11.0158 17.4735 10.9121 17.3699 10.8603 17.2662C10.8085 17.0072 10.7049 16.489 10.7567 16.1263C10.7567 15.9709 10.9121 15.9191 11.0676 15.9191L12.9847 16.3336C13.1401 16.3854 13.2437 16.5927 13.1401 16.7481ZM17.1298 18.2507L16.2489 18.3543C16.0935 18.3543 15.8862 18.3543 15.7308 18.3543L14.85 18.2507C14.6945 18.2507 14.5909 18.0953 14.5909 17.9916C14.5909 17.7844 14.6945 17.6289 14.9018 17.6289H15.9899H17.0779C17.2852 17.6289 17.3888 17.7844 17.3888 17.9916C17.3888 18.0953 17.2852 18.1989 17.1298 18.2507ZM21.1194 17.2662C21.1194 17.3699 21.0158 17.4735 20.8603 17.4735H19.4095C19.3059 17.4735 19.2541 17.4217 19.2023 17.3699L18.8396 16.7481C18.736 16.5927 18.8396 16.3854 18.995 16.3854L20.9121 15.9709C21.0676 15.9191 21.1712 16.0227 21.223 16.1782C21.2748 16.489 21.223 17.0072 21.1194 17.2662Z" fill="#343758"/>
<path d="M11.3734 9.38666C13.4674 8.29412 14.1047 5.97245 14.2868 4.97095C14.3323 4.69781 14.1958 4.4702 13.9682 4.33363L11.3734 2.96794C11.1913 2.8769 10.9637 2.8769 10.7816 2.96794L8.18676 4.33363C7.95914 4.4702 7.82257 4.69781 7.8681 4.97095C8.05019 5.97245 8.68751 8.29412 10.7816 9.38666C10.9637 9.47771 11.1913 9.47771 11.3734 9.38666Z" fill="#343758"/>
<path d="M5.41989 21.1003C4.95357 21.1003 4.53906 20.6858 4.53906 20.2195V18.3542C4.53906 17.8879 4.95357 17.4734 5.41989 17.4734C5.88621 17.4734 6.30072 17.8879 6.30072 18.3542V20.2195C6.30072 20.6858 5.93803 21.1003 5.41989 21.1003Z" fill="#343758"/>
<path d="M7.64767 14.4165C7.59585 13.6393 6.97409 13.0693 6.2487 13.0693H4.53886C3.76166 13.0693 3.1399 13.6393 3.08808 14.4165L2.88083 17.7844C2.82901 18.4579 3.24352 19.0279 3.86528 19.2351V18.2507C3.86528 17.3699 4.53886 16.6963 5.41969 16.6963C6.30052 16.6963 6.97409 17.3699 6.97409 18.2507V19.1833C7.49223 18.9761 7.90673 18.4061 7.85492 17.7844L7.64767 14.4165Z" fill="#343758"/>
<path d="M8.1658 10.634H6.50777C6.30052 10.2195 5.88601 9.96045 5.36788 9.96045C4.90155 9.96045 4.48705 10.2195 4.22798 10.634H2.46632C2.20725 10.634 2 10.7895 2 11.0485C2 11.3076 2.20725 11.5149 2.46632 11.5149H4.07254C4.17617 12.1366 4.74611 12.6547 5.36788 12.6547C6.04145 12.6029 6.55959 12.1366 6.66321 11.5149H8.1658C8.42487 11.5149 8.63213 11.3076 8.63213 11.0485C8.63213 10.7895 8.42487 10.634 8.1658 10.634ZM5.36788 12.033C4.95337 12.033 4.64249 11.6703 4.64249 11.3076C4.64249 10.9449 4.95337 10.5822 5.36788 10.5822C5.78238 10.5822 6.09326 10.8931 6.09326 11.3076C6.09326 11.7221 5.78238 12.033 5.36788 12.033Z" fill="#343758"/>
</svg>