<svg xmlns="http://www.w3.org/2000/svg" width="25" height="24" viewBox="0 0 25 24" fill="none">
<path d="M22.4956 11.8477L21.702 10.7489C22.0682 10.5658 22.6787 9.46693 22.0682 8.91751C21.763 8.61228 21.0305 8.85647 20.7252 8.97856L19.5043 5.01054C19.3822 4.58321 19.0159 4.27798 18.5275 4.15589C17.3677 3.9117 14.8648 3.48438 12.2398 3.48438C9.55371 3.48438 7.11185 3.9117 5.89092 4.15589C5.40255 4.21693 5.03627 4.58321 4.91418 5.01054L3.69325 8.97856C3.38801 8.79542 2.7165 8.61228 2.35022 8.91751C1.73976 9.46693 2.35022 10.5658 2.7165 10.7489L1.9229 11.8477C1.7879 12.0451 1.67871 12.2751 1.67871 12.5803C1.73976 16.3652 2.28918 19.0512 2.59441 20.028C2.65545 20.3332 2.89964 20.5164 3.20487 20.5164H5.64673C5.95197 20.5164 6.19615 20.3332 6.2572 20.089L6.68452 18.746H17.6729L18.1002 20.028C18.1613 20.2722 18.4665 20.4553 18.7107 20.4553H21.1525C21.4578 20.4553 21.702 20.2722 21.763 19.9669C22.0072 18.9291 22.6177 16.3041 22.6787 12.5193C22.6781 12.2669 22.6586 12.0714 22.4956 11.8477ZM5.21941 8.97856L5.82987 5.43786C5.89092 5.19368 6.07406 4.94949 6.31824 4.94949C7.1729 4.76635 9.37057 4.46112 12.1787 4.46112C15.0479 4.46112 17.0014 4.8274 17.795 5.01054C18.0392 5.07158 18.2223 5.25472 18.2834 5.43786L19.1991 8.97856C19.3212 9.28379 19.077 9.65007 18.7107 9.65007H5.70778C5.3415 9.65007 5.09732 9.28379 5.21941 8.97856ZM6.74557 14.2286C6.56243 14.5338 6.19615 14.778 5.76883 14.778H4.12057C3.57115 14.778 3.08278 14.4117 3.02173 13.8623C3.02173 13.7402 2.96069 13.557 2.96069 13.435C2.89964 12.6414 3.51011 12.0919 4.30371 12.2751L6.01301 12.6414C6.74557 12.7634 7.11185 13.6181 6.74557 14.2286ZM14.2543 15.9989L12.6671 16.182C12.3618 16.2431 12.0566 16.2431 11.6903 16.182L10.1642 15.9989C9.91999 15.9989 9.73685 15.7547 9.6758 15.5105C9.61476 15.2053 9.91999 14.9611 10.2252 14.9611H12.1787H14.1322C14.4374 14.9611 14.6816 15.2053 14.6816 15.5105C14.6816 15.7547 14.4985 15.9989 14.2543 15.9989ZM21.3967 13.8623C21.3357 14.3507 20.8473 14.778 20.2979 14.778H18.6496C18.2834 14.778 17.9171 14.5948 17.6729 14.2286C17.3066 13.6181 17.6729 12.8245 18.4055 12.6414L20.1148 12.2751C20.9084 12.0919 21.5188 12.6414 21.4578 13.435C21.4578 13.557 21.3967 13.7402 21.3967 13.8623Z" fill="#343758"/>
</svg>