<svg width="180" height="134" viewBox="0 0 180 134" fill="none" xmlns="http://www.w3.org/2000/svg">
<path d="M121.928 130.139C121.928 130.139 130.383 108.76 144.219 109.079C153.657 109.299 153.771 120.525 161.096 123.21C168.42 125.896 169.226 127.607 170.334 130.139H121.928Z" fill="#FFE5CA"/>
<path d="M81.5695 71.7761C81.5695 71.7761 87.4822 75.1248 93.6277 73.641C99.7732 72.1571 101.203 70.3911 101.203 70.3911C100.299 69.1459 99.4792 67.8423 98.7496 66.4891C98.7496 66.4891 100.771 68.7351 102.338 69.7866C102.338 69.7866 103.942 68.6874 104.636 67.6762C101.954 66.7312 99.6061 65.0346 97.8774 62.7923C95.1243 59.1284 92.301 58.2308 90.2463 58.7144C90.2463 58.7144 88.9899 57.8864 86.9205 58.8536C84.851 59.8209 83.2768 69.7719 81.5695 71.7761Z" fill="#343758"/>
<path d="M173.14 27.5363L169.943 29.4048L167.534 26.7559L169.869 23.9274C170.153 23.5837 170.289 23.143 170.248 22.7007C170.206 22.2583 169.991 21.85 169.648 21.5642C169.303 21.2771 168.857 21.1372 168.408 21.175C167.96 21.2127 167.544 21.4251 167.253 21.7657L162.737 27.06L161.946 26.4591C161.576 26.1783 161.129 26.0145 160.664 25.989C160.199 25.9635 159.736 26.0775 159.337 26.3162C158.977 26.53 158.681 26.8368 158.483 27.204C158.284 27.5711 158.19 27.9848 158.21 28.4009L158.428 32.8928L128.126 57.4407L93.3885 77.1485L103.928 87.4293L133.802 68.8536C135.675 67.6878 137.424 66.3375 139.023 64.8233L175.35 30.427C175.657 30.1355 175.854 29.7478 175.906 29.3293C175.959 28.9108 175.864 28.4871 175.638 28.1298C175.38 27.729 174.976 27.443 174.51 27.3322C174.044 27.2215 173.552 27.2946 173.14 27.5363Z" fill="#ECE4F9"/>
<path fill-rule="evenodd" clip-rule="evenodd" d="M166.034 27.9554L167.387 26.629L167.638 26.8839L166.285 28.2103C165.991 28.4985 165.822 28.8884 165.813 29.2976C165.803 29.7069 165.955 30.1039 166.235 30.4049L166.236 30.4059L166.236 30.4059L166.498 30.6911C166.776 30.9889 167.159 31.1698 167.568 31.1962C167.977 31.2225 168.38 31.0922 168.695 30.8323L168.923 31.1076C168.538 31.4257 168.045 31.585 167.545 31.5528C167.045 31.5205 166.576 31.2992 166.236 30.9341L166.235 30.9331L166.235 30.9331L165.973 30.6483C165.973 30.6481 165.973 30.648 165.973 30.6478C165.629 30.2789 165.443 29.792 165.455 29.2895C165.466 28.7869 165.674 28.3086 166.034 27.9554L166.034 27.9554Z" fill="#5E27C9"/>
<path fill-rule="evenodd" clip-rule="evenodd" d="M163.839 31.1169C164.583 31.37 165.485 31.4205 166.245 30.6855L166.494 30.9422C165.599 31.8083 164.533 31.7306 163.723 31.4552C163.318 31.3173 162.969 31.1281 162.721 30.9742C162.597 30.8971 162.498 30.8283 162.43 30.7785C162.396 30.7536 162.369 30.7334 162.35 30.7192L162.329 30.7025L162.323 30.6978L162.322 30.6965L162.321 30.6961L162.321 30.6959C162.321 30.6959 162.321 30.6958 162.434 30.5574C162.547 30.419 162.547 30.4189 162.547 30.4189C162.547 30.4189 162.547 30.4189 162.547 30.419L162.548 30.4196L162.552 30.4229L162.57 30.4366C162.585 30.4488 162.609 30.4669 162.641 30.4897C162.703 30.5352 162.795 30.599 162.911 30.671C163.143 30.8154 163.467 30.9905 163.839 31.1169Z" fill="#5E27C9"/>
<path fill-rule="evenodd" clip-rule="evenodd" d="M164.306 28.4686L162.621 27.2009L162.836 26.9156L164.521 28.1832L164.306 28.4686Z" fill="#5E27C9"/>
<path fill-rule="evenodd" clip-rule="evenodd" d="M164.601 31.4419C164.712 32.2734 164.712 33.1156 164.601 33.9471L164.247 33.9003C164.353 33.0999 164.353 32.2891 164.247 31.4887L164.601 31.4419Z" fill="#5E27C9"/>
<path d="M6.86334 27.537L10.0599 29.4055L12.4693 26.7566L10.1338 23.9281C9.85075 23.5835 9.71607 23.1422 9.75895 22.6998C9.80184 22.2575 10.0188 21.8497 10.3629 21.5649C10.7079 21.2778 11.1534 21.1379 11.6022 21.1757C12.0509 21.2134 12.4663 21.4258 12.7576 21.7664L17.266 27.0607L18.0568 26.4598C18.4269 26.179 18.8738 26.0152 19.3391 25.9897C19.8044 25.9642 20.2667 26.0782 20.6658 26.3169C21.0236 26.5324 21.3156 26.8402 21.5109 27.2073C21.7061 27.5744 21.7972 27.9872 21.7744 28.4016L21.5749 32.8935L51.8775 57.4414L86.6146 77.1493L76.0678 87.4227L46.2087 68.8543C44.3358 67.6885 42.5864 66.3382 40.987 64.8241L4.64977 30.4314C4.34203 30.1392 4.1456 29.7506 4.09374 29.3313C4.04188 28.912 4.13779 28.4878 4.36522 28.1305C4.62265 27.7297 5.02712 27.4437 5.49323 27.3329C5.95934 27.2222 6.45062 27.2953 6.86334 27.537Z" fill="#ECE4F9"/>
<path fill-rule="evenodd" clip-rule="evenodd" d="M13.679 28.2102L12.3265 26.8839L12.5774 26.629L13.9299 27.9554C14.2901 28.3086 14.498 28.7869 14.5094 29.2895C14.5208 29.792 14.3349 30.2789 13.9914 30.6478C13.9913 30.648 13.9916 30.6476 13.9914 30.6478L13.7285 30.9341C13.388 31.2992 12.9194 31.5205 12.4194 31.5528C11.9195 31.585 11.426 31.4257 11.0407 31.1076L11.2689 30.8323C11.5837 31.0922 11.9872 31.2225 12.3963 31.1962C12.8052 31.1698 13.1881 30.9889 13.4661 30.6911L13.7288 30.4049C14.0093 30.1039 14.1608 29.7069 14.1515 29.2976C14.1422 28.8884 13.9729 28.4985 13.679 28.2102C13.679 28.2103 13.679 28.2102 13.679 28.2102Z" fill="#5E27C9"/>
<path fill-rule="evenodd" clip-rule="evenodd" d="M16.2534 31.4552C15.4435 31.7306 14.378 31.8083 13.4825 30.9422L13.7316 30.6855C14.4916 31.4205 15.3939 31.37 16.1379 31.1169C16.5097 30.9905 16.8338 30.8154 17.0658 30.671C17.1815 30.599 17.2735 30.5352 17.3361 30.4897C17.3674 30.4669 17.3913 30.4488 17.4071 30.4366L17.4246 30.4229L17.4287 30.4196L17.4295 30.419L17.4296 30.4189C17.4295 30.4189 17.4295 30.419 17.5427 30.5574C17.6559 30.6958 17.6558 30.6959 17.6557 30.6959L17.6555 30.6961L17.655 30.6965L17.6533 30.6978L17.6475 30.7025L17.6262 30.7192C17.6078 30.7334 17.5811 30.7536 17.5468 30.7785C17.4783 30.8283 17.3792 30.8971 17.2552 30.9742C17.008 31.1281 16.6587 31.3173 16.2534 31.4552Z" fill="#5E27C9"/>
<path fill-rule="evenodd" clip-rule="evenodd" d="M15.4822 28.1832L17.1674 26.9156L17.3828 27.2009L15.6977 28.4686L15.4822 28.1832Z" fill="#5E27C9"/>
<path fill-rule="evenodd" clip-rule="evenodd" d="M15.7534 31.4893C15.6454 32.2893 15.6454 33.1 15.7534 33.9L15.3987 33.9477C15.2863 33.116 15.2863 32.2732 15.3987 31.4415L15.7534 31.4893Z" fill="#5E27C9"/>
<path d="M104.546 99.7641C108.053 91.6047 102.259 80.3457 102.259 80.3457L97.7097 77.1581C95.5478 75.6437 92.9658 74.8306 90.3188 74.8306C87.6718 74.8306 85.0898 75.6437 82.9279 77.1581L78.3678 80.3457C78.3678 80.3457 72.8505 89.1865 76.0803 99.7641L68.8816 130.141H111.749L104.546 99.7641Z" fill="#7C47E1"/>
<path fill-rule="evenodd" clip-rule="evenodd" d="M88.0388 101.7C87.6416 101.792 87.207 101.894 86.7031 102C84.0283 102.562 81.3096 101.731 80.2696 101.241L80.5751 100.594C81.5287 101.044 84.0838 101.82 86.5556 101.3C87.0195 101.203 87.4348 101.106 87.8243 101.015C88.7528 100.799 89.5349 100.616 90.4803 100.54C91.8353 100.431 93.5335 100.535 96.561 101.015L96.4487 101.721C93.4381 101.244 91.8069 101.151 90.5378 101.253C89.6481 101.324 88.9395 101.49 88.0388 101.7Z" fill="#5E27C9"/>
<path d="M95.5316 75.9276C95.5316 75.9276 99.227 88.2565 105.276 89.5169L103.946 78.9576L95.5316 75.9276Z" fill="#ECE4F9"/>
<path d="M85.1648 75.8985C85.1648 75.8985 81.3548 88.297 75.3017 89.5574L76.7503 78.9321L85.1648 75.8985Z" fill="#ECE4F9"/>
<path d="M93.8064 78.3268C93.8064 81.5033 92.2062 84.079 90.2292 84.079C88.2521 84.079 86.6483 81.5143 86.6483 78.3268C86.6388 77.2558 86.8345 76.1928 87.2248 75.1942C87.2248 75.1942 90.2292 74.1829 93.1966 75.1099C93.6088 76.1327 93.8159 77.2254 93.8064 78.3268Z" fill="#ECE4F9"/>
<path d="M92.0083 68.7299C92.0083 67.7566 91.2125 66.9676 90.2308 66.9676C89.2491 66.9676 88.4532 67.7566 88.4532 68.7299V75.6729C88.4532 76.6462 89.2491 77.4352 90.2308 77.4352C91.2125 77.4352 92.0083 76.6462 92.0083 75.6729V68.7299Z" fill="#ECE4F9"/>
<path d="M94.6206 65.4124C94.6206 68.3142 92.6287 71.2746 90.186 71.2746C87.7434 71.2746 85.7515 68.2995 85.7515 65.4124C86.8601 65.4491 88.475 64.5844 88.475 64.5844L88.6229 61.7266L89.5541 64.4122C89.5541 64.4122 93.6708 64.0641 94.6206 65.4124Z" fill="#ECE4F9"/>
<path d="M91.6373 67.801H88.8246C88.8723 68.2398 89.2028 69.1174 90.1435 69.1174C91.0841 69.1174 91.5313 68.2398 91.6373 67.801Z" fill="#5E27C9"/>
<path d="M92.0065 64.9845C92.3511 65.0404 92.7758 65.3044 92.7758 65.3044M87.3963 65.2636C87.3963 65.2636 87.8051 64.9197 88.3661 64.9117" stroke="#343758" stroke-width="0.5" stroke-linecap="round" stroke-linejoin="round"/>
<path d="M89.6695 66.8707C89.6695 66.8707 89.9217 66.9675 90.1989 66.9676C90.4761 66.9677 90.7026 66.8707 90.7026 66.8707" stroke="#9364ED" stroke-width="0.3"/>
<path d="M92.0262 70.7135C91.4119 71.1123 90.6867 71.3097 89.9531 71.2777L92.0262 72.4612V70.7135Z" fill="#151619"/>
<path d="M107.318 130.138C107.318 130.138 103.556 118.241 106.209 115.354C108.863 112.467 111.065 115.354 111.065 115.354C111.065 115.354 110.577 105.011 114.217 103.93C117.857 102.849 118.652 106.568 118.652 106.568C118.652 106.568 120.525 94.5361 126.35 93.0376C132.174 91.5391 129.14 102.63 129.14 102.63C129.14 102.63 131.446 101.644 133.142 102.124C134.838 102.604 134.72 106.477 130.111 111.518C130.111 111.518 134.443 109.847 134.945 111.518C135.448 113.189 133.63 117.16 128.534 121.37C128.534 121.37 131.808 119.927 133.386 121.971C134.964 124.016 128.896 129.163 127.199 130.138H107.318Z" fill="#D1C0FF"/>
<path fill-rule="evenodd" clip-rule="evenodd" d="M148.803 74.9854C147.426 74.9854 146.322 76.0903 146.322 77.438C146.322 78.7858 147.426 79.8907 148.803 79.8907C150.18 79.8907 151.284 78.7858 151.284 77.438C151.284 76.0903 150.18 74.9854 148.803 74.9854ZM144.174 77.438C144.174 74.8926 146.253 72.8414 148.803 72.8414C151.353 72.8414 153.432 74.8926 153.432 77.438C153.432 79.9835 151.353 82.0347 148.803 82.0347C146.253 82.0347 144.174 79.9835 144.174 77.438Z" fill="#FFE5CA"/>
<path fill-rule="evenodd" clip-rule="evenodd" d="M77.045 31.344L84.8728 28.7231L87.5187 36.4913L79.6909 39.1122L77.045 31.344ZM78.8635 32.2427L80.5876 37.3043L85.7001 35.5926L83.9761 30.5309L78.8635 32.2427Z" fill="#6CCAFF"/>
<path fill-rule="evenodd" clip-rule="evenodd" d="M124.575 103.763L116.612 130.217L116.091 130.06L124.054 103.607L124.575 103.763Z" fill="white"/>
<path fill-rule="evenodd" clip-rule="evenodd" d="M114.83 111.121C114.83 111.121 114.83 111.121 115.101 111.094L115.371 111.067L115.372 111.068L115.372 111.072L115.374 111.087C115.375 111.1 115.377 111.121 115.38 111.147C115.386 111.201 115.396 111.28 115.409 111.382C115.435 111.587 115.476 111.882 115.536 112.242C115.655 112.964 115.848 113.948 116.142 114.995C116.435 116.043 116.828 117.148 117.346 118.117C117.864 119.088 118.497 119.901 119.261 120.392L118.967 120.848C118.094 120.287 117.406 119.384 116.866 118.372C116.323 117.357 115.918 116.212 115.618 115.141C115.317 114.07 115.12 113.066 114.999 112.331C114.938 111.963 114.896 111.661 114.869 111.452C114.856 111.347 114.846 111.264 114.839 111.208C114.836 111.18 114.834 111.159 114.832 111.144L114.831 111.127L114.83 111.123L114.83 111.121Z" fill="white"/>
<path fill-rule="evenodd" clip-rule="evenodd" d="M121.519 126.077C121.519 126.077 121.518 126.077 121.545 125.807C121.571 125.537 121.571 125.537 121.571 125.537L121.571 125.537L121.572 125.537L121.58 125.538C121.587 125.538 121.598 125.539 121.614 125.54C121.644 125.542 121.691 125.545 121.753 125.548C121.877 125.553 122.062 125.558 122.305 125.555C122.789 125.549 123.501 125.51 124.399 125.383C126.195 125.127 128.738 124.512 131.707 123.075L131.944 123.564C128.919 125.028 126.322 125.658 124.476 125.92C123.553 126.052 122.818 126.091 122.312 126.098C122.059 126.101 121.863 126.096 121.729 126.091C121.662 126.088 121.61 126.084 121.575 126.082C121.557 126.081 121.544 126.08 121.534 126.079L121.523 126.078L121.52 126.078L121.519 126.078L121.519 126.077Z" fill="white"/>
<path fill-rule="evenodd" clip-rule="evenodd" d="M122.139 111.363C122.139 111.363 122.139 111.364 122.095 111.096C122.051 110.828 122.051 110.828 122.051 110.828L122.051 110.828L122.053 110.827L122.062 110.826C122.07 110.824 122.083 110.822 122.1 110.819C122.134 110.812 122.185 110.802 122.252 110.788C122.387 110.759 122.583 110.713 122.829 110.646C123.322 110.51 124.013 110.287 124.8 109.939C126.374 109.242 128.322 108.046 129.842 106.051L130.275 106.38C128.683 108.47 126.65 109.714 125.02 110.436C124.205 110.797 123.488 111.028 122.974 111.169C122.717 111.24 122.51 111.288 122.367 111.319C122.295 111.334 122.239 111.345 122.201 111.352C122.181 111.356 122.166 111.359 122.156 111.361L122.144 111.363L122.141 111.363L122.14 111.363L122.139 111.363Z" fill="white"/>
<path fill-rule="evenodd" clip-rule="evenodd" d="M136.006 124.254C136.006 124.254 136.006 124.253 135.735 124.222C135.465 124.191 135.465 124.191 135.465 124.191L135.465 124.19L135.465 124.189L135.466 124.185L135.468 124.173C135.469 124.162 135.471 124.147 135.474 124.128C135.48 124.09 135.489 124.036 135.502 123.968C135.529 123.832 135.574 123.64 135.645 123.414C135.786 122.961 136.033 122.363 136.458 121.786C136.884 121.208 137.49 120.65 138.345 120.288C139.2 119.925 140.286 119.764 141.663 119.952L141.872 119.981L141.896 120.191C142.025 121.319 141.793 122.458 141.235 123.449C140.677 124.439 139.82 125.232 138.785 125.714L138.555 125.222C139.487 124.787 140.259 124.074 140.761 123.183C141.228 122.353 141.441 121.408 141.375 120.464C140.185 120.331 139.267 120.486 138.558 120.787C137.807 121.106 137.274 121.595 136.896 122.108C136.516 122.623 136.293 123.162 136.164 123.575C136.1 123.781 136.06 123.953 136.036 124.073C136.024 124.133 136.017 124.18 136.012 124.211C136.009 124.226 136.008 124.238 136.007 124.245L136.006 124.252L136.006 124.254Z" fill="white"/>
<path fill-rule="evenodd" clip-rule="evenodd" d="M143.07 116.274C143.07 116.274 143.07 116.274 142.8 116.243C142.53 116.212 142.53 116.211 142.53 116.211L142.53 116.211L142.53 116.21L142.53 116.206L142.532 116.193C142.533 116.182 142.535 116.167 142.538 116.148C142.544 116.109 142.554 116.054 142.567 115.985C142.595 115.847 142.64 115.653 142.712 115.424C142.855 114.966 143.105 114.359 143.536 113.775C143.968 113.188 144.582 112.623 145.448 112.256C146.314 111.888 147.414 111.724 148.809 111.914L149.018 111.943L149.042 112.152C149.173 113.294 148.94 114.447 148.377 115.451C147.814 116.455 146.948 117.258 145.901 117.749L145.67 117.257C146.614 116.814 147.395 116.09 147.902 115.186C148.375 114.343 148.589 113.384 148.521 112.426C147.313 112.291 146.381 112.449 145.661 112.755C144.899 113.079 144.359 113.575 143.975 114.097C143.589 114.619 143.362 115.167 143.231 115.585C143.166 115.794 143.125 115.969 143.101 116.091C143.089 116.152 143.081 116.199 143.076 116.231C143.074 116.246 143.072 116.258 143.071 116.265L143.07 116.273L143.07 116.274Z" fill="white"/>
<path fill-rule="evenodd" clip-rule="evenodd" d="M146.5 122.793C146.5 122.793 146.5 122.793 146.25 122.687C146 122.58 146 122.58 146 122.58L146 122.579L146 122.578L146.001 122.576L146.005 122.567C146.008 122.56 146.013 122.551 146.018 122.539C146.03 122.514 146.046 122.481 146.068 122.439C146.112 122.355 146.178 122.239 146.268 122.105C146.446 121.839 146.721 121.497 147.109 121.201C147.499 120.904 148.002 120.653 148.63 120.576C149.258 120.499 149.993 120.598 150.842 120.973L151.037 121.059L151 121.268C150.868 122.025 150.5 122.721 149.948 123.26C149.397 123.799 148.69 124.153 147.926 124.274L147.841 123.737C148.494 123.634 149.097 123.332 149.568 122.872C149.986 122.463 150.281 121.948 150.42 121.385C149.737 121.116 149.167 121.057 148.696 121.115C148.18 121.179 147.765 121.384 147.44 121.632C147.112 121.882 146.876 122.175 146.72 122.407C146.643 122.523 146.587 122.622 146.55 122.691C146.532 122.726 146.519 122.753 146.511 122.77C146.506 122.779 146.504 122.785 146.502 122.789L146.5 122.793C146.5 122.793 146.5 122.794 146.5 122.794L146.5 122.793L146.5 122.793Z" fill="white"/>
<path d="M46.9205 130.143H25.6163C25.6163 130.143 12.1206 119.232 14.397 114.234C16.6733 109.237 23.8277 115.7 23.8277 115.7C23.8277 115.7 17.8115 102.144 21.3887 97.8056C24.9659 93.4676 29.685 100.546 29.685 100.546C29.685 100.546 29.3598 94.2589 32.124 93.2917C34.8882 92.3244 40.5792 96.3547 40.254 114.091C40.254 114.091 44.6441 105.826 49.8621 107.702C55.0801 109.578 49.8621 121.306 49.8621 121.306C49.8621 121.306 52.7889 119.166 55.0653 121.306C57.3417 123.445 46.9205 130.143 46.9205 130.143Z" fill="#FFEFAB"/>
<path fill-rule="evenodd" clip-rule="evenodd" d="M37.3331 124.536C37.3332 124.536 37.3332 124.536 37.0542 124.548C36.7752 124.56 36.7752 124.56 36.7752 124.56L36.7661 124.354C36.76 124.219 36.7508 124.019 36.7387 123.763C36.7143 123.25 36.6779 122.508 36.6295 121.595C36.5328 119.769 36.3881 117.256 36.1968 114.509C35.8137 109.009 35.2445 102.594 34.5002 98.8715L35.0479 98.7624C35.8003 102.525 36.3712 108.976 36.7539 114.47C36.9455 117.221 37.0903 119.737 37.1872 121.566C37.2357 122.48 37.2721 123.222 37.2965 123.736C37.3087 123.993 37.3179 124.193 37.324 124.329L37.3331 124.536Z" fill="white"/>
<path fill-rule="evenodd" clip-rule="evenodd" d="M29.2946 117.041C29.2946 117.041 29.2946 117.041 29.0435 117.163C28.7923 117.285 28.7922 117.285 28.7922 117.285L28.7885 117.277L28.7779 117.255L28.7365 117.169C28.7002 117.093 28.6471 116.981 28.5793 116.837C28.4436 116.548 28.2491 116.129 28.0132 115.604C27.5415 114.555 26.9041 113.085 26.2411 111.402C24.9178 108.044 23.4825 103.815 23.0715 100.39L23.626 100.324C24.028 103.673 25.4401 107.847 26.7608 111.198C27.4199 112.871 28.0537 114.332 28.5228 115.376C28.7572 115.897 28.9504 116.314 29.0849 116.6C29.1522 116.744 29.2047 116.854 29.2404 116.929L29.281 117.013L29.2913 117.034L29.2946 117.041Z" fill="white"/>
<path d="M48.722 112.456C48.722 112.456 46.1352 118.175 43.1788 121.282" stroke="white" stroke-width="0.78" stroke-miterlimit="10"/>
<path d="M55.6704 130.14C55.6704 130.14 54.8833 106.901 44.2922 92.4357C44.1862 92.2927 44.1316 92.1187 44.1369 91.9414C44.1422 91.7641 44.2072 91.5936 44.3215 91.4571C44.4358 91.3206 44.5928 91.226 44.7676 91.1882C44.9425 91.1504 45.125 91.1717 45.2862 91.2486C51.465 94.1431 65.8181 103.654 68.113 130.14H55.6704Z" fill="#D1C0FF"/>
<path d="M26.8155 110.934C25.0038 112.669 23.8007 114.934 23.3824 117.397C23.3643 117.485 23.3757 117.577 23.4149 117.658C23.454 117.739 23.5189 117.806 23.5995 117.847C23.6801 117.889 23.7722 117.903 23.8617 117.888C23.9512 117.873 24.0334 117.829 24.0956 117.763C26.0801 115.675 31.0689 111.018 35.4147 111.839C35.4147 111.821 31.2537 107.321 26.8155 110.934Z" fill="#0091DD"/>
<path d="M45.494 130.139C45.494 130.139 37.2975 104.543 26.9872 110.764C26.9872 110.764 31.6066 105.968 42.157 109.584C52.7075 113.201 57.6779 130.139 57.6779 130.139H45.494Z" fill="#70D4F9"/>
<path d="M78.1273 113.864C78.1273 113.864 74.1805 119.858 69.9419 120.144C65.7032 120.43 65.3669 116.66 66.6677 114.894C67.9685 113.128 72.9758 111.702 78.1273 113.864Z" fill="#FFA52F"/>
<path fill-rule="evenodd" clip-rule="evenodd" d="M61.7792 130.14C61.7792 130.14 61.7792 130.14 62.0584 130.14C62.3377 130.14 62.3377 130.14 62.3377 130.14L62.3377 130.14L62.3377 130.139L62.3377 130.133L62.3379 130.109C62.3382 130.088 62.3388 130.055 62.34 130.012C62.3424 129.926 62.3472 129.799 62.3568 129.635C62.376 129.306 62.4146 128.831 62.492 128.25C62.6468 127.086 62.9565 125.501 63.5749 123.811C64.8117 120.43 67.2726 116.655 72.1824 114.968L72.0006 114.441C66.8774 116.201 64.3217 120.144 63.0503 123.619C62.4145 125.357 62.0971 126.984 61.9384 128.176C61.859 128.773 61.8192 129.261 61.7992 129.602C61.7893 129.772 61.7843 129.906 61.7817 129.997C61.7805 130.043 61.7798 130.078 61.7795 130.102L61.7792 130.13L61.7792 130.137L61.7792 130.139V130.14Z" fill="#343758"/>
<path d="M68.3557 100.776C68.3557 100.776 62.6721 101.508 59.7453 105.945C56.8185 110.382 60.9648 114.108 64.324 112.69C67.6831 111.272 66.7149 103.644 68.3557 100.776Z" fill="#FF92AC"/>
<path fill-rule="evenodd" clip-rule="evenodd" d="M63.7659 104.893C59.7483 112.69 57.9577 121.427 58.5879 130.16L59.1449 130.12C58.5221 121.489 60.2917 112.854 64.2625 105.148L63.7659 104.893Z" fill="#343758"/>
<path d="M44.6715 86.3105C45.6573 86.3105 46.4564 85.5182 46.4564 84.5408C46.4564 83.5635 45.6573 82.7712 44.6715 82.7712C43.6858 82.7712 42.8866 83.5635 42.8866 84.5408C42.8866 85.5182 43.6858 86.3105 44.6715 86.3105Z" fill="#C9EEFD"/>
<path d="M127.18 37.4459C127.801 37.4459 128.304 36.9473 128.304 36.3321C128.304 35.717 127.801 35.2183 127.18 35.2183C126.56 35.2183 126.057 35.717 126.057 36.3321C126.057 36.9473 126.56 37.4459 127.18 37.4459Z" fill="#ABE5FC"/>
<ellipse cx="92.069" cy="66.1286" rx="0.325233" ry="0.324627" fill="#343758"/>
<ellipse cx="88.4533" cy="66.1286" rx="0.32523" ry="0.324627" fill="#343758"/>
</svg>
